<?xml version="1.0" encoding="utf-8"?>
<!-- Generator: Adobe Illustrator 17.0.0, SVG Export Plug-In . SVG Version: 6.00 Build 0)  -->
<!DOCTYPE svg PUBLIC "-//W3C//DTD SVG 1.1//EN" "http://www.w3.org/Graphics/SVG/1.1/DTD/svg11.dtd">
<svg version="1.1" id="Layer_1" xmlns="http://www.w3.org/2000/svg" xmlns:xlink="http://www.w3.org/1999/xlink" x="0px" y="0px"
	 width="50px" height="50px" viewBox="0 0 50 50" enable-background="new 0 0 50 50" xml:space="preserve">
<circle fill="#324D5B" cx="25.062" cy="25.006" r="24.948"/>
<g>
	<defs>
		<circle id="SVGID_1_" cx="25.062" cy="25.006" r="24.948"/>
	</defs>
	<clipPath id="SVGID_2_">
		<use xlink:href="#SVGID_1_"  overflow="visible"/>
	</clipPath>
	<path clip-path="url(#SVGID_2_)" fill="#283F49" d="M27.806,13.862c-5.833,0-10.561,4.728-10.561,10.561
		c0,0.909,0.085,1.785,0.301,2.627L15,29.185v1.809L4.626,41.409l1.829,2.495l4.083,3.368L13,45.027v-2.058l1.977-0.062l1.082-0.873
		l0.136-2.495l2.375-0.561L20.634,36h1.933L24,35.546v-0.561l2.444-0.086l0.007-0.008c0.439,0.056,0.892,0.094,1.347,0.094
		c5.833,0,10.565-4.728,10.565-10.561S33.639,13.862,27.806,13.862z"/>
</g>
<path fill="#EFEFEF" d="M30.634,0.806c0,0-5.572,4.574-3.908,10.977c1.663,6.403-2.911,3.576-2.079-3.825
	c0.832-7.401,4.99-8.399,4.574-7.9S30.634,0.806,30.634,0.806z"/>
<circle fill="#F4CA5D" cx="27.806" cy="22.428" r="10.561"/>
<circle fill="#2D4552" cx="30.052" cy="20.016" r="2.121"/>
<path fill="#EFEFEF" d="M49.511,20.177l-0.573-1.991c0,0-1.338,1.46-5.161,3.65s-10.004,0.796-12.808-1.394
	s-1.975-2.256-1.975-2.256l-1.529,1.062c0,0,2.931,3.716,5.862,4.579s5.799,1.261,8.794,0.597
	C45.114,23.761,49.511,20.177,49.511,20.177z"/>
<ellipse fill="none" stroke="#EFBE52" stroke-width="2" stroke-miterlimit="10" cx="30.052" cy="20.016" rx="2.802" ry="2.919"/>
<path fill="#EFEFEF" d="M34.116,22.077c-1.599-0.672-2.659-1.284-2.659-1.284l-2.067,0.509c0,0,2.771,2.397,3.775,2.473
	S34.116,22.077,34.116,22.077z"/>
<polyline fill="#F4CA5D" points="17.942,24.718 15,27.189 15,28.998 4.626,39.413 6.455,41.908 10.538,45.276 13,43.031 13,40.973 
	14.977,40.91 16.059,40.037 16.195,37.542 18.57,37.479 20.634,35 22.567,35 24,33.551 24,32.989 26.423,32.903 "/>
<polygon fill="#C3A24A" points="15.894,31.492 6.102,41.222 6.913,41.97 16.58,32.178 "/>
</svg>
