<svg width="183" height="181" viewBox="0 0 183 181" xmlns="http://www.w3.org/2000/svg" xmlns:xlink="http://www.w3.org/1999/xlink"><title>Illustration-box</title><defs><path id="a" d="M1.812 10.659V.309h-1v10.35h1z"/></defs><g fill="none" fill-rule="evenodd"><path fill="#006023" d="M91.494 66.625L147.99 94.6v57.514l-56.495-21.507z"/><path fill="#006023" d="M91.494 66.625L35 94.6v57.514l56.495-21.507z"/><path fill="#1B9B4A" d="M35 94.601L15.483 75.618l58.221-27.654 17.79 18.661z"/><path fill="#1AB744" d="M147.99 94.601l19.514-18.983-58.22-27.654-17.79 18.661z"/><path d="M30.729 53.254v24.785m118.866-32.183v15.04m-46.576-42.228v14.939M91.494 1v9.541M77.629 22.296v4.771M1 103.106v4.77" stroke="#1AB744" stroke-width="2" stroke-linecap="round" stroke-linejoin="round"/><g transform="translate(181 104.091)"><mask id="b" fill="#fff"><use xlink:href="#a"/></mask><path d="M.813.308v10.35" stroke="#1AB744" stroke-width="2" stroke-linecap="round" stroke-linejoin="round" mask="url(#b)"/></g><path fill="#FF8900" d="M67.177 32.094L42.859 51.548v38.908l48.636 38.908 48.635-38.908V51.548l-24.318-19.454-24.317 19.454z"/><path fill="#FD9A00" d="M67.177 71.002l24.317-19.454-24.317-19.454z"/><path fill="#FCC400" d="M42.859 51.548l24.318 19.454V32.094z"/><path fill="#FFE747" d="M115.812 71.002l24.317-19.454-24.317-19.454z"/><path fill="#FFCD22" d="M91.494 51.548l24.318 19.454V32.094z"/><path fill="#FC9300" d="M91.494 90.456l24.318-19.454-24.318-19.455z"/><path fill="#FD7000" d="M67.177 71.002l24.317 19.454V51.548z"/><path fill="#FF8900" d="M115.812 109.91l24.317-19.453-24.317-19.455z"/><path fill="#E12A14" d="M91.494 90.456l24.318 19.453V71.002z"/><path fill="#DC2400" d="M67.177 109.91l24.317-19.453-24.317-19.455z"/><path fill="#FF8F04" d="M42.859 90.456l24.318 19.453V71.002z"/><path fill="#AF0B00" d="M91.494 129.364l24.318-19.454-24.318-19.454z"/><path fill="#BA1200" d="M67.177 109.91l24.317 19.454V90.457z"/><path fill="#FCC400" d="M115.812 71.002l24.317 19.454V51.548z"/><path fill="#FFA800" d="M42.859 90.456l24.318-19.454-24.318-19.455z"/><path fill="#1B9B4A" d="M35 152.114l56.494 27.977v-58.808L35 94.6z"/><path fill="#1AB744" d="M91.494 121.283v58.808l56.496-27.977V94.601zM.585 99.01l55.8 27.976 35.109-5.702-56.495-26.683z"/><path fill="#1B9B4A" d="M91.494 121.284l35.11 5.702 55.8-27.977-34.414-4.408z"/></g></svg>